<?xml version="1.0" encoding="iso-8859-1"?>
<!-- Generator: Adobe Illustrator 19.0.0, SVG Export Plug-In . SVG Version: 6.00 Build 0)  -->
<svg version="1.1" id="Capa_1" xmlns="http://www.w3.org/2000/svg" xmlns:xlink="http://www.w3.org/1999/xlink" x="0px" y="0px"
	 viewBox="0 0 512.001 512.001" style="enable-background:new 0 0 512.001 512.001;" xml:space="preserve">
<path style="fill:#75DC5E;" d="M508.02,387.118v103.96H319.44v-97.1H39.22v-62.39h413.26
	C483.15,331.589,508.02,356.448,508.02,387.118z"/>
<g>
	<path style="fill:#2AAD52;" d="M452.48,331.585h-23.774c30.672,0,55.536,24.864,55.536,55.536v103.952h23.774V387.121
		C508.016,356.449,483.152,331.585,452.48,331.585z"/>
	<path style="fill:#2AAD52;" d="M272.232,393.981v-6.86c0-30.671-24.863-55.534-55.533-55.536h-114.81
		c-30.67,0.001-55.533,24.865-55.533,55.536v6.86H272.232z"/>
</g>
<path style="fill:#EBEAE6;" d="M428.539,320.568h-66.922l-17.483,21.797c-3.728,4.649-5.347,10.642-4.466,16.536l7.025,47
	c0.504,3.372,4.304,5.118,7.19,3.303l41.195-25.894l41.195,25.894c2.887,1.814,6.686,0.069,7.19-3.303l7.025-47
	c0.881-5.894-0.738-11.887-4.466-16.536L428.539,320.568z"/>
<path style="fill:#F2A077;" d="M361.617,275.784v64.612c0,1.832,0.635,3.608,1.797,5.024l25.538,31.135
	c3.17,3.864,9.082,3.864,12.251,0l25.538-31.135c1.162-1.417,1.797-3.192,1.797-5.024v-64.612H361.617z"/>
<path style="fill:#FFCCAA;" d="M491.173,174.427h-6.931v-45.206c0-43.735-35.454-79.188-79.188-79.188h-19.952
	c-43.735,0-79.188,35.454-79.188,79.188v45.206h-6.931c-11.502,0-20.827,9.324-20.827,20.827v9.85
	c0,11.502,9.324,20.827,20.827,20.827h7.06c2.43,47.077,41.363,84.497,89.036,84.497c23.836,0,45.484-9.351,61.482-24.593
	c15.998-15.242,26.331-36.374,27.554-59.904h7.06c11.502,0,20.826-9.324,20.826-20.826v-9.85
	C512,183.752,502.676,174.427,491.173,174.427z"/>
<path style="fill:#F2A077;" d="M491.173,174.427h-6.931v-45.206c0-43.735-35.454-79.189-79.188-79.189h-19.952
	c-1.309,0-2.609,0.036-3.903,0.099c41.921,2.035,75.286,36.664,75.286,79.09v45.206l-0.129,51.503
	c-1.223,23.53-11.556,44.663-27.554,59.904c-12.828,12.222-29.293,20.641-47.602,23.504c4.524,0.708,9.155,1.089,13.878,1.089
	c23.836,0,45.483-9.351,61.482-24.593c15.998-15.242,26.331-36.374,27.554-59.904h7.06c11.502,0,20.826-9.324,20.826-20.826v-9.85
	C512,183.752,502.676,174.427,491.173,174.427z"/>
<g>
	<path style="fill:#475D6D;" d="M395.078,258.55c-11.635,0-22.588-4.533-30.839-12.764c-4.17-4.171-7.39-9.028-9.577-14.445
		c-1.55-3.841,0.307-8.212,4.148-9.762c3.841-1.551,8.211,0.307,9.762,4.148c1.427,3.537,3.536,6.715,6.267,9.446
		c5.414,5.4,12.604,8.377,20.239,8.377c11.71,0,22.116-7.001,26.511-17.835c1.558-3.838,5.93-5.688,9.77-4.131
		c3.838,1.557,5.688,5.931,4.131,9.77C428.787,247.875,412.925,258.55,395.078,258.55z"/>
	<path style="fill:#475D6D;" d="M350.443,187.702c-4.142,0-7.5-3.358-7.5-7.5v-4.308c0-4.142,3.358-7.5,7.5-7.5s7.5,3.358,7.5,7.5
		v4.308C357.943,184.344,354.585,187.702,350.443,187.702z"/>
	<path style="fill:#475D6D;" d="M439.713,187.702c-4.142,0-7.5-3.358-7.5-7.5v-4.308c0-4.142,3.358-7.5,7.5-7.5s7.5,3.358,7.5,7.5
		v4.308C447.213,184.344,443.855,187.702,439.713,187.702z"/>
</g>
<path style="fill:#F9DC6A;" d="M277.961,20.922h128.416c43.004,0,77.865,34.861,77.865,77.865v30.434H329.424
	c-28.422,0-51.463-23.041-51.463-51.463V20.922z"/>
<path style="fill:#E5AC51;" d="M406.377,20.922h-28.482c43.004,0,77.865,34.861,77.865,77.865v30.434h28.482V98.788
	C484.242,55.784,449.381,20.922,406.377,20.922z"/>
<path style="fill:#2BB4F3;" d="M241.68,387.118v103.96H15.8v-103.96c0-30.67,24.86-55.53,55.54-55.53h114.8
	C216.81,331.589,241.68,356.448,241.68,387.118z"/>
<path style="fill:#1687C4;" d="M186.14,331.585h-23.774c30.672,0,55.536,24.864,55.536,55.536v103.952h23.774V387.121
	C241.676,356.449,216.811,331.585,186.14,331.585z"/>
<path style="fill:#F2A077;" d="M95.277,275.784v67.446c0,18.48,14.981,33.461,33.461,33.461l0,0
	c18.48,0,33.461-14.981,33.461-33.461v-67.446H95.277z"/>
<path style="fill:#FFCCAA;" d="M224.833,174.427h-6.931v-49.13c0-35.576-28.84-64.416-64.416-64.416h-49.497
	c-35.576,0-64.416,28.84-64.416,64.416v49.13h-6.931c-11.502,0-20.827,9.324-20.827,20.827v9.85
	c0,11.502,9.324,20.827,20.827,20.827h7.06c2.43,47.077,41.363,84.497,89.036,84.497c47.477,0,86.577-37.207,89.036-84.497h7.06
	c11.502,0,20.826-9.324,20.826-20.826v-9.85C245.659,183.752,236.335,174.427,224.833,174.427z"/>
<path style="fill:#F2A077;" d="M224.833,174.427h-6.931v-49.13c0-35.576-28.84-64.416-64.416-64.416h-26.535
	c35.576,0,64.416,28.84,64.416,64.416v49.13l-0.129,51.503c-2.225,42.804-34.472,77.344-75.776,83.512
	c4.332,0.647,8.764,0.985,13.276,0.985c47.477,0,86.577-37.208,89.036-84.497h7.06c11.502,0,20.826-9.324,20.826-20.826v-9.85
	C245.659,183.752,236.335,174.427,224.833,174.427z"/>
<g>
	<path style="fill:#475D6D;" d="M128.737,258.55c-11.636,0-22.588-4.533-30.839-12.765c-4.171-4.171-7.392-9.029-9.577-14.445
		c-1.55-3.841,0.308-8.212,4.148-9.762c3.842-1.55,8.212,0.308,9.762,4.148c1.427,3.536,3.535,6.714,6.267,9.445
		c5.413,5.4,12.603,8.377,20.239,8.377c11.71,0,22.116-7,26.511-17.835c1.558-3.839,5.932-5.688,9.769-4.131
		c3.838,1.557,5.688,5.931,4.131,9.769C162.447,247.875,146.585,258.55,128.737,258.55z"/>
	<path style="fill:#475D6D;" d="M84.102,187.702c-4.142,0-7.5-3.358-7.5-7.5v-4.308c0-4.142,3.358-7.5,7.5-7.5s7.5,3.358,7.5,7.5
		v4.308C91.602,184.344,88.244,187.702,84.102,187.702z"/>
	<path style="fill:#475D6D;" d="M173.373,187.702c-4.142,0-7.5-3.358-7.5-7.5v-4.308c0-4.142,3.358-7.5,7.5-7.5s7.5,3.358,7.5,7.5
		v4.308C180.873,184.344,177.515,187.702,173.373,187.702z"/>
	<path style="fill:#475D6D;" d="M39.573,131.819h25.636c7.253,0,13.827-4.265,16.784-10.888l6.651-14.899
		c1.809-4.052,6.938-5.334,10.441-2.61l31.531,24.524c3.226,2.509,7.197,3.872,11.285,3.872h76.001V76.452
		c0-27.672-22.433-50.105-50.105-50.105h-60.915c-9.107,0-16.491,7.383-16.491,16.491v8.823H63.825
		c-13.394,0-24.252,10.858-24.252,24.252C39.573,75.913,39.573,131.819,39.573,131.819z"/>
</g>
<path style="fill:#2C3F4F;" d="M167.797,26.347h-28.883c27.672,0,50.105,22.433,50.105,50.105v55.367h28.883V76.452
	C217.902,48.779,195.469,26.347,167.797,26.347z"/>
<path style="fill:#FFCCAA;" d="M38.272,402.999H19.359C8.667,402.999,0,394.332,0,383.641v-42.253
	c0-10.692,8.667-19.359,19.359-19.359h18.913c7.855,0,14.223,6.368,14.223,14.223v52.526
	C52.495,396.632,46.127,402.999,38.272,402.999z"/>
<g>
	<path style="fill:#1687C4;" d="M211.87,431.268v59.81h-15v-59.81c0-4.14,3.36-7.5,7.5-7.5S211.87,427.128,211.87,431.268z"/>
	<path style="fill:#1687C4;" d="M60.6,431.268v59.81h-15v-59.81c0-4.14,3.36-7.5,7.5-7.5S60.6,427.128,60.6,431.268z"/>
</g>
<path style="fill:#2AAD52;" d="M478.21,431.268v59.81h-15v-59.81c0-4.14,3.36-7.5,7.5-7.5
	C474.86,423.768,478.21,427.128,478.21,431.268z"/>
<g>
</g>
<g>
</g>
<g>
</g>
<g>
</g>
<g>
</g>
<g>
</g>
<g>
</g>
<g>
</g>
<g>
</g>
<g>
</g>
<g>
</g>
<g>
</g>
<g>
</g>
<g>
</g>
<g>
</g>
</svg>
