<?xml version="1.0" encoding="iso-8859-1"?>
<!-- Generator: Adobe Illustrator 19.0.0, SVG Export Plug-In . SVG Version: 6.00 Build 0)  -->
<svg version="1.1" id="Capa_1" xmlns="http://www.w3.org/2000/svg" xmlns:xlink="http://www.w3.org/1999/xlink" x="0px" y="0px"
	 viewBox="0 0 472 472" style="enable-background:new 0 0 472 472;" xml:space="preserve">
<g>
	<circle style="fill:#FFD422;" cx="296" cy="48" r="24"/>
	<polygon style="fill:#FFD422;" points="224,96 416,96 416,128 320,128 320,168 384,168 384,240 352,240 352,200 296,200 296,296 
		264,296 264,128 192,128 192,24 224,24 	"/>
</g>
<g>
	<path style="fill:#69C229;" d="M472,248c0,13.255-10.745,24-24,24s-24-10.745-24-24c0-13.255,10.745-24,24-24S472,234.745,472,248z
		"/>
	<circle style="fill:#69C229;" cx="240" cy="416" r="24"/>
	<circle style="fill:#69C229;" cx="128" cy="352" r="24"/>
	<circle style="fill:#69C229;" cx="32" cy="448" r="24"/>
</g>
<g>
	
		<rect x="34.784" y="392.003" transform="matrix(-0.7071 0.7071 -0.7071 -0.7071 419.4823 626.2511)" style="fill:#884D00;" width="90.512" height="16"/>
	
		<rect x="172.001" y="348.77" transform="matrix(-0.5547 0.8321 -0.8321 -0.5547 606.0428 459.7317)" style="fill:#884D00;" width="16" height="86.536"/>
</g>
<path style="fill:#69C229;" d="M376,304c0.052,13.255-10.651,24.042-23.906,24.094c-8.077,0.032-15.629-4.002-20.094-10.734
	c-2.596-3.973-3.986-8.614-4-13.36c0.202-13.253,11.11-23.833,24.363-23.631c5.778,0.088,11.33,2.258,15.637,6.111
	C372.996,290.947,375.896,297.299,376,304z"/>
<g>
	
		<rect x="237.865" y="350.693" transform="matrix(-0.6769 0.736 -0.736 -0.6769 757.0038 385.1144)" style="fill:#884D00;" width="112.24" height="15.992"/>
	
		<rect x="364.201" y="271.992" transform="matrix(-0.8944 0.4472 -0.4472 -0.8944 882.9432 351.5513)" style="fill:#884D00;" width="71.552" height="16"/>
</g>
<rect x="440" style="fill:#29485A;" width="16" height="224"/>
<polyline style="fill:#F40E34;" points="448,8 352,8 448,72 "/>
<path style="fill:#5AAAE7;" d="M216,256c0,13.255-10.745,24-24,24h-80c-17.673,0-32-14.327-32-32c-0.04-0.773-0.04-1.547,0-2.32
	c1.218-16.761,15.195-29.724,32-29.68c-0.036-21.216,16.499-38.769,37.68-40c0.771-0.082,1.549-0.082,2.32,0
	c22.091,0,40,17.909,40,40c-0.006,5.5-1.122,10.942-3.28,16l0,0c1.09-0.112,2.19-0.112,3.28,0C205.255,232,216,242.745,216,256z"/>
<path style="fill:#FFD422;" d="M149.68,176c-21.181,1.231-37.716,18.784-37.68,40c-16.805-0.044-30.782,12.919-32,29.68
	c-29.635-8.848-46.487-40.045-37.639-69.68s40.045-46.487,69.68-37.639C130.129,143.761,144.28,157.912,149.68,176z"/>
<g>
	<rect x="88" y="96" style="fill:#E7B900;" width="16" height="16"/>
	
		<rect x="25.791" y="121.729" transform="matrix(-0.707 0.7072 -0.7072 -0.707 149.4573 197.6154)" style="fill:#E7B900;" width="16" height="16.08"/>
	<rect y="184" style="fill:#E7B900;" width="16" height="16"/>
	
		<rect x="25.761" y="246.234" transform="matrix(-0.7071 0.7071 -0.7071 -0.7071 237.4722 410.1037)" style="fill:#E7B900;" width="16.08" height="16"/>
	
		<rect x="150.209" y="121.752" transform="matrix(-0.7071 0.7071 -0.7071 -0.7071 361.8961 109.6014)" style="fill:#E7B900;" width="16.08" height="16"/>
	<path style="fill:#E7B900;" d="M112,184v-16h-8v-8H88v8h-8c-4.418,0-8,3.578-8,8v24c0,4.422,3.582,8,8,8h16v8h16v-16
		c0-4.422-3.582-8-8-8H88v-8H112z"/>
</g>
<g>
	<path style="fill:#FFFFFF;" d="M152,264h-32c-13.234,0-24-10.766-24-24v-8h16v8c0,4.414,3.59,8,8,8h32V264z"/>
	<rect x="168" y="248" style="fill:#FFFFFF;" width="16" height="16"/>
</g>
<g>
</g>
<g>
</g>
<g>
</g>
<g>
</g>
<g>
</g>
<g>
</g>
<g>
</g>
<g>
</g>
<g>
</g>
<g>
</g>
<g>
</g>
<g>
</g>
<g>
</g>
<g>
</g>
<g>
</g>
</svg>
